<?xml version="1.0" encoding="utf-8"?>
<!-- Generator: Adobe Illustrator 27.2.0, SVG Export Plug-In . SVG Version: 6.00 Build 0)  -->
<svg version="1.1" id="Layer_1" xmlns="http://www.w3.org/2000/svg" xmlns:xlink="http://www.w3.org/1999/xlink" x="0px" y="0px"
	 viewBox="0 0 174 28" style="enable-background:new 0 0 174 28;" xml:space="preserve">
<style type="text/css">
	.st0{fill:#111536;}
	.st1{fill-rule:evenodd;clip-rule:evenodd;fill:#111536;}
</style>
<g>
	<g>
		<g>
			<path class="st0" d="M34.14,5.72h6.43c1.76,0,3.26,0.34,4.5,1.03s2.2,1.68,2.87,2.98c0.67,1.3,1,2.88,1,4.74v0.03
				c0,1.86-0.33,3.44-1,4.77c-0.66,1.32-1.62,2.33-2.87,3.03c-1.25,0.7-2.75,1.05-4.51,1.05h-6.43V5.72z M40.24,20.68
				c1.19,0,2.19-0.24,3-0.71c0.81-0.48,1.43-1.17,1.86-2.09c0.42-0.92,0.63-2.04,0.63-3.39v-0.02c0-1.31-0.21-2.42-0.64-3.33
				c-0.43-0.91-1.05-1.6-1.87-2.07c-0.82-0.47-1.81-0.7-2.98-0.7h-2.95v12.32H40.24z"/>
			<path class="st0" d="M53.76,22.78c-0.94-0.54-1.66-1.31-2.18-2.32c-0.52-1-0.78-2.2-0.78-3.59v-0.02c0-1.38,0.26-2.58,0.78-3.58
				c0.52-1,1.25-1.78,2.19-2.32c0.94-0.54,2.03-0.81,3.28-0.81c1.26,0,2.36,0.27,3.3,0.81c0.94,0.54,1.67,1.31,2.19,2.31
				c0.52,1,0.78,2.2,0.78,3.59v0.02c0,1.4-0.26,2.6-0.78,3.61c-0.52,1-1.24,1.78-2.18,2.31c-0.94,0.54-2.04,0.8-3.31,0.8
				S54.7,23.32,53.76,22.78z M58.75,20.63c0.47-0.33,0.84-0.82,1.09-1.46c0.26-0.64,0.38-1.41,0.38-2.31v-0.02
				c0-0.9-0.13-1.66-0.39-2.29c-0.26-0.63-0.63-1.12-1.1-1.45c-0.48-0.33-1.04-0.5-1.68-0.5c-0.63,0-1.18,0.17-1.65,0.5
				c-0.48,0.33-0.85,0.82-1.11,1.45c-0.26,0.63-0.4,1.4-0.4,2.29v0.02c0,0.9,0.13,1.67,0.4,2.31c0.26,0.64,0.63,1.12,1.11,1.46
				c0.48,0.33,1.04,0.5,1.68,0.5C57.72,21.13,58.28,20.97,58.75,20.63z"/>
			<path class="st0" d="M67.27,22.71c-0.66-0.59-0.98-1.55-0.98-2.88v-7.09h-1.83v-2.34h1.83V7.11h3.09v3.28h2.4v2.34h-2.4v6.85
				c0,0.63,0.14,1.06,0.42,1.3c0.28,0.24,0.69,0.36,1.24,0.36c0.15,0,0.29-0.01,0.41-0.02c0.12-0.01,0.23-0.02,0.34-0.03v2.28
				c-0.18,0.02-0.4,0.05-0.65,0.07c-0.26,0.02-0.54,0.04-0.86,0.04C68.93,23.59,67.93,23.29,67.27,22.71z"/>
			<path class="st0" d="M77.64,22.53c-1.24-0.74-2.2-1.79-2.87-3.16c-0.67-1.36-1.01-2.98-1.01-4.85v-0.01
				c0-1.87,0.34-3.49,1.01-4.85c0.68-1.36,1.63-2.41,2.87-3.14c1.24-0.74,2.7-1.1,4.38-1.1c1.35,0,2.56,0.26,3.63,0.78
				c1.07,0.52,1.94,1.24,2.62,2.16c0.68,0.92,1.09,1.98,1.25,3.17l0.01,0.12h-3.09l-0.06-0.23c-0.17-0.68-0.45-1.26-0.84-1.75
				s-0.88-0.87-1.48-1.13c-0.59-0.27-1.27-0.4-2.04-0.4c-1.03,0-1.92,0.26-2.67,0.78c-0.76,0.52-1.34,1.25-1.76,2.2
				s-0.62,2.08-0.62,3.39v0.01c0,1.3,0.21,2.43,0.62,3.39s1,1.7,1.76,2.22c0.76,0.52,1.65,0.79,2.67,0.79c0.75,0,1.42-0.13,2.01-0.4
				c0.59-0.26,1.09-0.65,1.5-1.15c0.41-0.5,0.7-1.12,0.89-1.84l0.04-0.12h3.09l-0.02,0.13c-0.15,1.2-0.56,2.25-1.23,3.17
				c-0.68,0.92-1.55,1.64-2.62,2.16s-2.29,0.77-3.64,0.77C80.34,23.64,78.88,23.27,77.64,22.53z"/>
			<path class="st0" d="M94.24,22.78c-0.94-0.54-1.66-1.31-2.18-2.32c-0.52-1-0.78-2.2-0.78-3.59v-0.02c0-1.38,0.26-2.58,0.78-3.58
				c0.52-1,1.25-1.78,2.19-2.32c0.94-0.54,2.03-0.81,3.28-0.81c1.26,0,2.36,0.27,3.3,0.81c0.94,0.54,1.67,1.31,2.19,2.31
				c0.52,1,0.78,2.2,0.78,3.59v0.02c0,1.4-0.26,2.6-0.78,3.61c-0.52,1-1.24,1.78-2.18,2.31c-0.94,0.54-2.04,0.8-3.31,0.8
				S95.18,23.32,94.24,22.78z M99.23,20.63c0.47-0.33,0.84-0.82,1.09-1.46c0.26-0.64,0.38-1.41,0.38-2.31v-0.02
				c0-0.9-0.13-1.66-0.39-2.29c-0.26-0.63-0.63-1.12-1.1-1.45c-0.48-0.33-1.04-0.5-1.68-0.5c-0.63,0-1.18,0.17-1.65,0.5
				c-0.48,0.33-0.85,0.82-1.11,1.45c-0.26,0.63-0.4,1.4-0.4,2.29v0.02c0,0.9,0.13,1.67,0.4,2.31c0.26,0.64,0.63,1.12,1.11,1.46
				c0.48,0.33,1.04,0.5,1.68,0.5C98.2,21.13,98.76,20.97,99.23,20.63z"/>
			<path class="st0" d="M105.95,10.39h3.03v2.03h0.07c0.33-0.7,0.83-1.26,1.5-1.67c0.66-0.41,1.48-0.62,2.46-0.62
				c1.42,0,2.52,0.43,3.3,1.29c0.78,0.86,1.17,2.04,1.17,3.54v8.37h-3.04v-7.76c0-0.92-0.22-1.63-0.65-2.13
				c-0.43-0.5-1.08-0.75-1.94-0.75c-0.58,0-1.08,0.13-1.51,0.4c-0.43,0.26-0.77,0.63-1,1.1c-0.24,0.47-0.35,1.02-0.35,1.64v7.51
				h-3.03V10.39z"/>
			<path class="st0" d="M121.91,22.71c-0.66-0.59-0.98-1.55-0.98-2.88v-7.09h-1.83v-2.34h1.83V7.11h3.09v3.28h2.4v2.34h-2.4v6.85
				c0,0.63,0.14,1.06,0.42,1.3c0.28,0.24,0.69,0.36,1.24,0.36c0.15,0,0.29-0.01,0.41-0.02c0.12-0.01,0.23-0.02,0.34-0.03v2.28
				c-0.18,0.02-0.4,0.05-0.65,0.07c-0.26,0.02-0.54,0.04-0.86,0.04C123.56,23.59,122.56,23.29,121.91,22.71z"/>
			<path class="st0" d="M128.69,10.39h3.03v2.23h0.07c0.2-0.78,0.55-1.39,1.07-1.84c0.52-0.44,1.15-0.67,1.9-0.67
				c0.19,0,0.37,0.01,0.54,0.04c0.17,0.03,0.31,0.05,0.43,0.09v2.75c-0.12-0.05-0.29-0.09-0.52-0.12c-0.22-0.03-0.47-0.05-0.73-0.05
				c-0.57,0-1.06,0.12-1.48,0.35c-0.42,0.23-0.73,0.57-0.95,1.02c-0.22,0.45-0.33,0.99-0.33,1.63v7.51h-3.03V10.39z"/>
			<path class="st0" d="M138.75,23.06c-0.66-0.33-1.16-0.79-1.53-1.38c-0.36-0.59-0.54-1.27-0.54-2.03v-0.02
				c0-1.15,0.43-2.06,1.29-2.73c0.86-0.67,2.07-1.05,3.63-1.14l4.94-0.31v2.01l-4.52,0.28c-0.75,0.05-1.32,0.23-1.72,0.54
				c-0.4,0.31-0.6,0.72-0.6,1.23v0.01c0,0.53,0.2,0.95,0.6,1.25c0.4,0.31,0.94,0.46,1.6,0.46c0.59,0,1.11-0.12,1.57-0.35
				c0.46-0.24,0.82-0.56,1.09-0.96s0.4-0.87,0.4-1.38v-3.88c0-0.65-0.21-1.17-0.62-1.54c-0.41-0.38-1-0.57-1.78-0.57
				c-0.72,0-1.29,0.15-1.72,0.46c-0.43,0.3-0.7,0.7-0.81,1.18l-0.02,0.11h-2.81l0.01-0.15c0.06-0.77,0.32-1.45,0.77-2.06
				c0.45-0.61,1.07-1.08,1.86-1.43c0.79-0.35,1.73-0.52,2.83-0.52c1.08,0,2.02,0.18,2.81,0.54c0.79,0.36,1.41,0.86,1.84,1.5
				c0.44,0.64,0.65,1.4,0.65,2.27v8.9h-3.03v-1.99h-0.07c-0.24,0.45-0.56,0.84-0.95,1.17c-0.39,0.33-0.84,0.59-1.34,0.77
				c-0.5,0.18-1.04,0.27-1.6,0.27C140.16,23.55,139.4,23.39,138.75,23.06z"/>
			<path class="st0" d="M153.05,22.77c-0.94-0.54-1.66-1.32-2.17-2.33c-0.51-1.01-0.76-2.21-0.76-3.59v-0.01
				c0-1.38,0.26-2.57,0.77-3.57s1.23-1.78,2.17-2.33c0.93-0.54,2.02-0.82,3.28-0.82c1.14,0,2.12,0.22,2.95,0.65s1.48,1.01,1.95,1.73
				c0.47,0.72,0.74,1.51,0.81,2.37v0.08h-2.86l-0.02-0.1c-0.12-0.63-0.42-1.16-0.89-1.61c-0.47-0.44-1.1-0.67-1.91-0.67
				c-0.63,0-1.19,0.17-1.67,0.52c-0.48,0.35-0.84,0.84-1.1,1.47c-0.26,0.63-0.39,1.4-0.39,2.28v0.01c0,0.89,0.13,1.66,0.4,2.29
				c0.26,0.63,0.63,1.12,1.11,1.46c0.48,0.34,1.03,0.51,1.67,0.51c0.77,0,1.4-0.21,1.87-0.63c0.48-0.42,0.78-0.97,0.92-1.64
				l0.02-0.11h2.87l-0.01,0.09c-0.08,0.9-0.37,1.7-0.85,2.42s-1.14,1.28-1.97,1.7c-0.82,0.42-1.78,0.63-2.87,0.63
				C155.1,23.59,153.99,23.32,153.05,22.77z"/>
			<path class="st0" d="M165.88,22.71c-0.66-0.59-0.98-1.55-0.98-2.88v-7.09h-1.83v-2.34h1.83V7.11h3.09v3.28h2.4v2.34h-2.4v6.85
				c0,0.63,0.14,1.06,0.42,1.3c0.28,0.24,0.69,0.36,1.24,0.36c0.15,0,0.29-0.01,0.41-0.02c0.12-0.01,0.23-0.02,0.34-0.03v2.28
				c-0.18,0.02-0.4,0.05-0.65,0.07c-0.26,0.02-0.54,0.04-0.86,0.04C167.54,23.59,166.54,23.29,165.88,22.71z"/>
		</g>
	</g>
	<g>
		<g>
			<rect x="1.5" y="1.5" class="st1" width="2" height="25"/>
			<path class="st0" d="M4,27H2c-0.55,0-1-0.45-1-1V2c0-0.55,0.45-1,1-1h2V27z M2,26h1V2H2V26z"/>
		</g>
		<g>
			<rect x="24.5" y="1.5" class="st1" width="2" height="25"/>
			<path class="st0" d="M26,27h-2V1h2c0.55,0,1,0.45,1,1v24C27,26.55,26.55,27,26,27z M25,26h1V2h-1V26z"/>
		</g>
		<g>
			<rect x="13" y="-10" transform="matrix(4.456530e-11 -1 1 4.456530e-11 11.5 16.5)" class="st1" width="2" height="25"/>
			<path class="st0" d="M27,4H1V2c0-0.55,0.45-1,1-1h24c0.55,0,1,0.45,1,1V4z M2,3h24V2H2V3z"/>
		</g>
		<g>
			<rect x="13" y="13" transform="matrix(4.456530e-11 -1 1 4.456530e-11 -11.5 39.5)" class="st1" width="2" height="25"/>
			<path class="st0" d="M26,27H2c-0.55,0-1-0.45-1-1v-2h26v2C27,26.55,26.55,27,26,27z M2,26h24v-1H2V26z"/>
		</g>
		<g>
			<rect x="7.5" y="7.35" class="st1" width="13" height="1.9"/>
			<g>
				<path class="st0" d="M21.22,9.67H7.78c-0.55,0-1-0.45-1-1V7.85c0-0.55,0.45-1,1-1h12.44c0.55,0,1,0.45,1,1V9.67z"/>
				<g>
					<path class="st0" d="M15.44,15.44H7.78c-0.55,0-1-0.45-1-1v-0.89c0-0.55,0.45-1,1-1h6.67c0.55,0,1,0.45,1,1V15.44z"/>
					<path class="st0" d="M8.67,21.22H7.78c-0.55,0-1-0.45-1-1v-0.89c0-0.55,0.45-1,1-1h0.89c0.55,0,1,0.45,1,1v0.89
						C9.67,20.77,9.22,21.22,8.67,21.22z"/>
					<path class="st0" d="M15.44,13.56v6.67c0,0.55-0.45,1-1,1h-0.89c-0.55,0-1-0.45-1-1v-7.67h1.89C15,12.56,15.44,13,15.44,13.56z
						"/>
				</g>
				<path class="st0" d="M21.22,7.85v12.44c0,0.55-0.45,1-1,1h-0.82c-0.55,0-1-0.45-1-1V6.85h1.82C20.77,6.85,21.22,7.3,21.22,7.85z
					"/>
			</g>
		</g>
	</g>
</g>
</svg>
