<?xml version="1.0" encoding="utf-8"?>
<!-- Generator: Adobe Illustrator 26.3.1, SVG Export Plug-In . SVG Version: 6.00 Build 0)  -->
<svg version="1.1" id="Layer_1" xmlns="http://www.w3.org/2000/svg" xmlns:xlink="http://www.w3.org/1999/xlink" x="0px" y="0px"
	 viewBox="0 0 174 28" style="enable-background:new 0 0 174 28;" xml:space="preserve">
<style type="text/css">
	.st0{fill:#111536;}
	.st1{fill-rule:evenodd;clip-rule:evenodd;fill:#05B179;}
	.st2{fill:#05B179;}
</style>
<g>
	<g>
		<g>
			<path class="st0" d="M34.1,5.7h6.4c1.8,0,3.3,0.3,4.5,1s2.2,1.7,2.9,3s1,2.9,1,4.7v0c0,1.9-0.3,3.4-1,4.8c-0.7,1.3-1.6,2.3-2.9,3
				s-2.8,1-4.5,1h-6.4L34.1,5.7L34.1,5.7z M40.2,20.7c1.2,0,2.2-0.2,3-0.7c0.8-0.5,1.4-1.2,1.9-2.1c0.4-0.9,0.6-2,0.6-3.4v0
				c0-1.3-0.2-2.4-0.6-3.3s-1-1.6-1.9-2.1c-0.8-0.5-1.8-0.7-3-0.7h-3v12.3L40.2,20.7L40.2,20.7z"/>
			<path class="st0" d="M53.8,22.8c-0.9-0.5-1.7-1.3-2.2-2.3c-0.5-1-0.8-2.2-0.8-3.6v0c0-1.4,0.3-2.6,0.8-3.6s1.2-1.8,2.2-2.3
				s2-0.8,3.3-0.8c1.3,0,2.4,0.3,3.3,0.8s1.7,1.3,2.2,2.3s0.8,2.2,0.8,3.6v0c0,1.4-0.3,2.6-0.8,3.6c-0.5,1-1.2,1.8-2.2,2.3
				c-0.9,0.5-2,0.8-3.3,0.8S54.7,23.3,53.8,22.8z M58.8,20.6c0.5-0.3,0.8-0.8,1.1-1.5c0.3-0.6,0.4-1.4,0.4-2.3v0
				c0-0.9-0.1-1.7-0.4-2.3s-0.6-1.1-1.1-1.4c-0.5-0.3-1-0.5-1.7-0.5c-0.6,0-1.2,0.2-1.7,0.5c-0.5,0.3-0.8,0.8-1.1,1.4
				c-0.3,0.6-0.4,1.4-0.4,2.3v0c0,0.9,0.1,1.7,0.4,2.3c0.3,0.6,0.6,1.1,1.1,1.5c0.5,0.3,1,0.5,1.7,0.5C57.7,21.1,58.3,21,58.8,20.6z
				"/>
			<path class="st0" d="M67.3,22.7c-0.7-0.6-1-1.5-1-2.9v-7.1h-1.8v-2.3h1.8V7.1h3.1v3.3h2.4v2.3h-2.4v6.8c0,0.6,0.1,1.1,0.4,1.3
				s0.7,0.4,1.2,0.4c0.2,0,0.3,0,0.4,0s0.2,0,0.3,0v2.3c-0.2,0-0.4,0-0.7,0.1c-0.3,0-0.5,0-0.9,0C68.9,23.6,67.9,23.3,67.3,22.7z"/>
			<path class="st0" d="M77.6,22.5c-1.2-0.7-2.2-1.8-2.9-3.2c-0.7-1.4-1-3-1-4.9v0c0-1.9,0.3-3.5,1-4.9c0.7-1.4,1.6-2.4,2.9-3.1
				c1.2-0.7,2.7-1.1,4.4-1.1c1.3,0,2.6,0.3,3.6,0.8s1.9,1.2,2.6,2.2s1.1,2,1.2,3.2l0,0.1h-3.1l-0.1-0.2c-0.2-0.7-0.4-1.3-0.8-1.8
				s-0.9-0.9-1.5-1.1c-0.6-0.3-1.3-0.4-2-0.4c-1,0-1.9,0.3-2.7,0.8c-0.8,0.5-1.3,1.2-1.8,2.2S77,13.2,77,14.5v0
				c0,1.3,0.2,2.4,0.6,3.4s1,1.7,1.8,2.2c0.8,0.5,1.7,0.8,2.7,0.8c0.8,0,1.4-0.1,2-0.4c0.6-0.3,1.1-0.6,1.5-1.1s0.7-1.1,0.9-1.8
				l0-0.1h3.1l0,0.1c-0.2,1.2-0.6,2.2-1.2,3.2c-0.7,0.9-1.6,1.6-2.6,2.2s-2.3,0.8-3.6,0.8C80.3,23.6,78.9,23.3,77.6,22.5z"/>
			<path class="st0" d="M94.2,22.8c-0.9-0.5-1.7-1.3-2.2-2.3c-0.5-1-0.8-2.2-0.8-3.6v0c0-1.4,0.3-2.6,0.8-3.6s1.2-1.8,2.2-2.3
				s2-0.8,3.3-0.8c1.3,0,2.4,0.3,3.3,0.8s1.7,1.3,2.2,2.3c0.5,1,0.8,2.2,0.8,3.6v0c0,1.4-0.3,2.6-0.8,3.6c-0.5,1-1.2,1.8-2.2,2.3
				c-0.9,0.5-2,0.8-3.3,0.8S95.2,23.3,94.2,22.8z M99.2,20.6c0.5-0.3,0.8-0.8,1.1-1.5c0.3-0.6,0.4-1.4,0.4-2.3v0
				c0-0.9-0.1-1.7-0.4-2.3s-0.6-1.1-1.1-1.4c-0.5-0.3-1-0.5-1.7-0.5c-0.6,0-1.2,0.2-1.7,0.5c-0.5,0.3-0.8,0.8-1.1,1.4
				s-0.4,1.4-0.4,2.3v0c0,0.9,0.1,1.7,0.4,2.3c0.3,0.6,0.6,1.1,1.1,1.5c0.5,0.3,1,0.5,1.7,0.5C98.2,21.1,98.8,21,99.2,20.6z"/>
			<path class="st0" d="M105.9,10.4h3v2h0.1c0.3-0.7,0.8-1.3,1.5-1.7c0.7-0.4,1.5-0.6,2.5-0.6c1.4,0,2.5,0.4,3.3,1.3
				c0.8,0.9,1.2,2,1.2,3.5v8.4h-3v-7.8c0-0.9-0.2-1.6-0.7-2.1s-1.1-0.8-1.9-0.8c-0.6,0-1.1,0.1-1.5,0.4c-0.4,0.3-0.8,0.6-1,1.1
				c-0.2,0.5-0.3,1-0.3,1.6v7.5h-3L105.9,10.4L105.9,10.4z"/>
			<path class="st0" d="M121.9,22.7c-0.7-0.6-1-1.5-1-2.9v-7.1h-1.8v-2.3h1.8V7.1h3.1v3.3h2.4v2.3H124v6.8c0,0.6,0.1,1.1,0.4,1.3
				s0.7,0.4,1.2,0.4c0.2,0,0.3,0,0.4,0s0.2,0,0.3,0v2.3c-0.2,0-0.4,0-0.7,0.1c-0.3,0-0.5,0-0.9,0C123.6,23.6,122.6,23.3,121.9,22.7z
				"/>
			<path class="st0" d="M128.7,10.4h3v2.2h0.1c0.2-0.8,0.6-1.4,1.1-1.8c0.5-0.4,1.1-0.7,1.9-0.7c0.2,0,0.4,0,0.5,0s0.3,0.1,0.4,0.1
				V13c-0.1-0.1-0.3-0.1-0.5-0.1c-0.2,0-0.5-0.1-0.7-0.1c-0.6,0-1.1,0.1-1.5,0.4c-0.4,0.2-0.7,0.6-0.9,1s-0.3,1-0.3,1.6v7.5h-3V10.4
				z"/>
			<path class="st0" d="M138.8,23.1c-0.7-0.3-1.2-0.8-1.5-1.4c-0.4-0.6-0.5-1.3-0.5-2v0c0-1.1,0.4-2.1,1.3-2.7s2.1-1.1,3.6-1.1
				l4.9-0.3v2l-4.5,0.3c-0.8,0-1.3,0.2-1.7,0.5c-0.4,0.3-0.6,0.7-0.6,1.2v0c0,0.5,0.2,1,0.6,1.2c0.4,0.3,0.9,0.5,1.6,0.5
				c0.6,0,1.1-0.1,1.6-0.4c0.5-0.2,0.8-0.6,1.1-1s0.4-0.9,0.4-1.4v-3.9c0-0.6-0.2-1.2-0.6-1.5c-0.4-0.4-1-0.6-1.8-0.6
				c-0.7,0-1.3,0.1-1.7,0.5c-0.4,0.3-0.7,0.7-0.8,1.2l0,0.1h-2.8l0-0.1c0.1-0.8,0.3-1.4,0.8-2.1s1.1-1.1,1.9-1.4s1.7-0.5,2.8-0.5
				c1.1,0,2,0.2,2.8,0.5s1.4,0.9,1.8,1.5c0.4,0.6,0.6,1.4,0.6,2.3v8.9h-3v-2h-0.1c-0.2,0.5-0.6,0.8-0.9,1.2s-0.8,0.6-1.3,0.8
				s-1,0.3-1.6,0.3C140.2,23.5,139.4,23.4,138.8,23.1z"/>
			<path class="st0" d="M153.1,22.8c-0.9-0.5-1.7-1.3-2.2-2.3s-0.8-2.2-0.8-3.6v0c0-1.4,0.3-2.6,0.8-3.6s1.2-1.8,2.2-2.3
				c0.9-0.5,2-0.8,3.3-0.8c1.1,0,2.1,0.2,2.9,0.6s1.5,1,1.9,1.7c0.5,0.7,0.7,1.5,0.8,2.4v0.1h-2.9l0-0.1c-0.1-0.6-0.4-1.2-0.9-1.6
				c-0.5-0.4-1.1-0.7-1.9-0.7c-0.6,0-1.2,0.2-1.7,0.5s-0.8,0.8-1.1,1.5c-0.3,0.6-0.4,1.4-0.4,2.3v0c0,0.9,0.1,1.7,0.4,2.3
				c0.3,0.6,0.6,1.1,1.1,1.5c0.5,0.3,1,0.5,1.7,0.5c0.8,0,1.4-0.2,1.9-0.6c0.5-0.4,0.8-1,0.9-1.6l0-0.1h2.9l0,0.1
				c-0.1,0.9-0.4,1.7-0.9,2.4s-1.1,1.3-2,1.7c-0.8,0.4-1.8,0.6-2.9,0.6C155.1,23.6,154,23.3,153.1,22.8z"/>
			<path class="st0" d="M165.9,22.7c-0.7-0.6-1-1.5-1-2.9v-7.1h-1.8v-2.3h1.8V7.1h3.1v3.3h2.4v2.3H168v6.8c0,0.6,0.1,1.1,0.4,1.3
				s0.7,0.4,1.2,0.4c0.1,0,0.3,0,0.4,0c0.1,0,0.2,0,0.3,0v2.3c-0.2,0-0.4,0-0.6,0.1c-0.3,0-0.5,0-0.9,0
				C167.5,23.6,166.5,23.3,165.9,22.7z"/>
		</g>
	</g>
	<g>
		<g>
			<rect x="1.5" y="1.5" class="st1" width="2" height="25"/>
			<path class="st2" d="M4,27H2c-0.5,0-1-0.5-1-1V2c0-0.5,0.5-1,1-1h2V27z M2,26h1V2H2V26z"/>
		</g>
		<g>
			<rect x="24.5" y="1.5" class="st1" width="2" height="25"/>
			<path class="st2" d="M26,27h-2V1h2c0.5,0,1,0.5,1,1v24C27,26.5,26.5,27,26,27z M25,26h1V2h-1V26z"/>
		</g>
		<g>
			<rect x="1.5" y="1.5" class="st1" width="25" height="2"/>
			<path class="st2" d="M27,4H1V2c0-0.5,0.5-1,1-1h24c0.5,0,1,0.5,1,1V4z M2,3h24V2H2V3z"/>
		</g>
		<g>
			<rect x="1.5" y="24.5" class="st1" width="25" height="2"/>
			<path class="st2" d="M26,27H2c-0.5,0-1-0.5-1-1v-2h26v2C27,26.5,26.5,27,26,27z M2,26h24v-1H2V26z"/>
		</g>
		<g>
			<rect x="7.5" y="7.3" class="st1" width="13" height="1.9"/>
			<g>
				<path class="st2" d="M21.2,9.7H7.8c-0.6,0-1-0.4-1-1V7.8c0-0.6,0.4-1,1-1h12.4c0.5,0,1,0.4,1,1V9.7z"/>
				<g>
					<path class="st2" d="M15.4,15.4H7.8c-0.6,0-1-0.4-1-1v-0.9c0-0.6,0.4-1,1-1h6.7c0.6,0,1,0.4,1,1L15.4,15.4L15.4,15.4z"/>
					<path class="st2" d="M8.7,21.2H7.8c-0.6,0-1-0.5-1-1v-0.9c0-0.5,0.4-1,1-1h0.9c0.6,0,1,0.5,1,1v0.9C9.7,20.8,9.2,21.2,8.7,21.2
						z"/>
					<path class="st2" d="M15.4,13.6v6.7c0,0.5-0.4,1-1,1h-0.9c-0.6,0-1-0.5-1-1v-7.7h1.9C15,12.6,15.4,13,15.4,13.6z"/>
				</g>
				<path class="st2" d="M21.2,7.8v12.4c0,0.5-0.5,1-1,1h-0.8c-0.5,0-1-0.5-1-1V6.8h1.8C20.8,6.8,21.2,7.3,21.2,7.8z"/>
			</g>
		</g>
	</g>
</g>
</svg>
