<?xml version="1.0" encoding="utf-8"?>
<!-- Generator: Adobe Illustrator 26.3.1, SVG Export Plug-In . SVG Version: 6.00 Build 0)  -->
<svg version="1.1" id="Layer_1" xmlns="http://www.w3.org/2000/svg" xmlns:xlink="http://www.w3.org/1999/xlink" x="0px" y="0px"
	 viewBox="0 0 29 29" style="enable-background:new 0 0 29 29;" xml:space="preserve">
<style type="text/css">
	.st0{fill-rule:evenodd;clip-rule:evenodd;fill:#05B179;}
	.st1{fill:#05B179;}
</style>
<g>
	<g>
		<rect x="2" y="2" class="st0" width="2" height="25"/>
		<path class="st1" d="M4.5,27.5h-2c-0.5,0-1-0.5-1-1v-24c0-0.5,0.5-1,1-1h2V27.5z M2.5,26.5h1v-24h-1V26.5z"/>
	</g>
	<g>
		<rect x="25" y="2" class="st0" width="2" height="25"/>
		<path class="st1" d="M26.5,27.5h-2v-26h2c0.5,0,1,0.5,1,1v24C27.5,27,27,27.5,26.5,27.5z M25.5,26.5h1v-24h-1V26.5z"/>
	</g>
	<g>
		<rect x="2" y="2" class="st0" width="25" height="2"/>
		<path class="st1" d="M27.5,4.5h-26v-2c0-0.5,0.5-1,1-1h24c0.5,0,1,0.5,1,1V4.5z M2.5,3.5h24v-1h-24V3.5z"/>
	</g>
	<g>
		<rect x="2" y="25" class="st0" width="25" height="2"/>
		<path class="st1" d="M26.5,27.5h-24c-0.5,0-1-0.5-1-1v-2h26v2C27.5,27,27,27.5,26.5,27.5z M2.5,26.5h24v-1h-24V26.5z"/>
	</g>
	<g>
		<rect x="8" y="7.8" class="st0" width="13" height="1.9"/>
		<g>
			<path class="st1" d="M21.7,10.2H8.3c-0.6,0-1-0.4-1-1V8.4c0-0.6,0.4-1,1-1h12.4c0.5,0,1,0.4,1,1V10.2z"/>
			<g>
				<path class="st1" d="M15.9,15.9H8.3c-0.6,0-1-0.4-1-1V14c0-0.6,0.4-1,1-1h6.7c0.6,0,1,0.4,1,1L15.9,15.9L15.9,15.9z"/>
				<path class="st1" d="M9.2,21.7H8.3c-0.6,0-1-0.5-1-1v-0.9c0-0.5,0.4-1,1-1h0.9c0.6,0,1,0.5,1,1v0.9C10.2,21.3,9.7,21.7,9.2,21.7
					z"/>
				<path class="st1" d="M15.9,14.1v6.7c0,0.5-0.4,1-1,1H14c-0.6,0-1-0.5-1-1v-7.7h1.9C15.5,13.1,15.9,13.5,15.9,14.1z"/>
			</g>
			<path class="st1" d="M21.7,8.4v12.4c0,0.5-0.5,1-1,1h-0.8c-0.5,0-1-0.5-1-1V7.3h1.8C21.3,7.3,21.7,7.8,21.7,8.4z"/>
		</g>
	</g>
</g>
</svg>
