<?xml version="1.0" encoding="utf-8"?>
<!-- Generator: Adobe Illustrator 26.5.1, SVG Export Plug-In . SVG Version: 6.00 Build 0)  -->
<svg version="1.1" id="Layer_1" xmlns="http://www.w3.org/2000/svg" xmlns:xlink="http://www.w3.org/1999/xlink" x="0px" y="0px"
	 viewBox="0 0 718 355" style="enable-background:new 0 0 718 355;" xml:space="preserve">
<style type="text/css">
	.st0{fill:#4BA076;}
	.st1{fill:#69C08B;}
	.st2{fill:#D2EEC5;}
	.st3{fill:#F8CFB3;}
	.st4{fill:#F2F2ED;}
</style>
<path class="st0" d="M30.05,161.41L328.87,40.57c19.77-7.99,41.83-7.98,61.59,0.04l297.67,120.81c21.3,8.64,21.24,39.1-0.09,47.67
	L390.18,328.67c-19.59,7.86-41.42,7.88-61.01,0.03L30.14,209.1C8.77,200.55,8.72,170.04,30.05,161.41z"/>
<path class="st1" d="M73.74,119.95l60.63-24.17c4.01-1.6,8.49-1.6,12.5,0.01l60.4,24.16c4.32,1.73,4.31,7.82-0.02,9.53l-60.44,23.92
	c-3.97,1.57-8.4,1.58-12.38,0.01l-60.67-23.92C69.43,127.78,69.42,121.67,73.74,119.95z"/>
<path class="st1" d="M253.74,102.95l60.63-24.17c4.01-1.6,8.49-1.6,12.5,0.01l60.4,24.16c4.32,1.73,4.31,7.82-0.02,9.53
	l-60.44,23.92c-3.97,1.57-8.4,1.58-12.38,0.01l-60.67-23.92C249.43,110.78,249.42,104.67,253.74,102.95z"/>
<path class="st2" d="M301.74,179.95l60.63-24.17c4.01-1.6,8.49-1.6,12.5,0.01l60.4,24.16c4.32,1.73,4.31,7.82-0.02,9.53
	l-60.44,23.92c-3.97,1.57-8.4,1.58-12.38,0.01l-60.67-23.92C297.43,187.78,297.42,181.67,301.74,179.95z"/>
<path class="st2" d="M377.74,58.95l60.63-24.17c4.01-1.6,8.49-1.6,12.5,0.01l60.4,24.16c4.32,1.73,4.31,7.82-0.02,9.53L450.81,92.4
	c-3.97,1.57-8.4,1.58-12.38,0.01l-60.67-23.92C373.43,66.78,373.42,60.67,377.74,58.95z"/>
<path class="st3" d="M700.84,81.95l-60.63-24.17c-4.01-1.6-8.49-1.6-12.5,0.01l-60.4,24.16c-4.32,1.73-4.31,7.82,0.02,9.53
	l60.44,23.92c3.97,1.57,8.4,1.58,12.38,0.01l60.67-23.92C705.16,89.78,705.17,83.67,700.84,81.95z"/>
<path class="st4" d="M386.84,248.95l-60.63-24.17c-4.01-1.6-8.49-1.6-12.5,0.01l-60.4,24.16c-4.32,1.73-4.31,7.82,0.02,9.53
	l60.44,23.92c3.97,1.57,8.4,1.58,12.38,0.01l60.67-23.92C391.16,256.78,391.17,250.67,386.84,248.95z"/>
<path class="st3" d="M510.84,292.95l-60.63-24.17c-4.01-1.6-8.49-1.6-12.5,0.01l-60.4,24.16c-4.32,1.73-4.31,7.82,0.02,9.53
	l60.44,23.92c3.97,1.57,8.4,1.58,12.38,0.01l60.67-23.92C515.16,300.78,515.17,294.67,510.84,292.95z"/>
</svg>
